<?xml version="1.0" encoding="UTF-8"?>
<svg version="1.1" viewBox="0 0 32 32" xmlns="http://www.w3.org/2000/svg" xmlnsXlink="http://www.w3.org/1999/xlink">
<title>Group</title>
<desc>Created with Sketch.</desc>
<g fill="none" fill-rule="evenodd" sketchType="MSPage">
<g sketchType="MSLayerGroup">
<path d="m16 32c8.8366 0 16-7.1634 16-16s-7.1634-16-16-16-16 7.1634-16 16 7.1634 16 16 16z" fill="#222" sketchType="MSShapeGroup"/>
<path d="m12.7 10.821h-2.0389v1.9381h2.4421v1.008h-3.7342v-6.6712h3.725v1.0126h-2.433v1.7044h2.0389v1.008zm2.5154 0.27033v2.6758h-1.2921v-6.6666h1.9977c0.66284 0 1.1844 0.17258 1.5647 0.51775s0.57044 0.82625 0.57044 1.4433c0 0.34517-0.080181 0.64451-0.24055 0.89804-0.16037 0.25353-0.39175 0.45513-0.69415 0.6048 0.34822 0.11607 0.59869 0.30851 0.75142 0.57731s0.22909 0.6048 0.22909 1.008v0.48567c0 0.18633 0.021382 0.38182 0.064146 0.58648 0.042764 0.20466 0.11913 0.35433 0.22909 0.44902v0.096219h-1.3379c-0.10691-0.097746-0.17487-0.25735-0.20389-0.4788-0.029018-0.22146-0.043527-0.44215-0.043527-0.66208v-0.46735c0-0.33906-0.070254-0.60175-0.21076-0.78808-0.14051-0.18633-0.34211-0.27949-0.6048-0.27949h-0.77891zm0-1.008h0.69644c0.27797 0 0.48949-0.083236 0.63458-0.24971 0.14509-0.16647 0.21764-0.40244 0.21764-0.70789 0-0.31157-0.071781-0.55898-0.21535-0.74226-0.14356-0.18327-0.3528-0.27491-0.62771-0.27491h-0.7056v1.9748zm8.2565 1.6128 0.0091636 0.027491c0.012218 0.71477-0.17029 1.2501-0.54753 1.6059s-0.9156 0.53378-1.6151 0.53378c-0.71782 0-1.2875-0.21153-1.709-0.63458s-0.63229-1.024-0.63229-1.803v-1.9794c0-0.77586 0.20389-1.3776 0.61168-1.8052 0.40779-0.42764 0.95836-0.64146 1.6518-0.64146 0.73004 0 1.2905 0.17716 1.6815 0.53149 0.39099 0.35433 0.58037 0.8904 0.56815 1.6082l-0.0091637 0.027491h-1.2554c0-0.42764-0.0756-0.72698-0.2268-0.89804-0.1512-0.17106-0.40396-0.25658-0.75829-0.25658-0.32378 0-0.56662 0.11684-0.72851 0.35051-0.16189 0.23367-0.24284 0.59182-0.24284 1.0744v1.9885c0 0.48568 0.087054 0.84535 0.26116 1.079 0.17411 0.23367 0.4368 0.35051 0.78808 0.35051 0.32073 0 0.55135-0.084763 0.69186-0.25429 0.14051-0.16953 0.21076-0.47116 0.21076-0.90491h1.2508zm-7.719 14.27h-6.5392v-1.3782l2.9544-3.7314c0.42031-0.56693 0.7221-1.0557 0.90537-1.4662s0.27491-0.78441 0.27491-1.1216c0-0.4643-0.089192-0.83206-0.26758-1.1033-0.17839-0.27125-0.45329-0.40687-0.82473-0.40687-0.3861 0-0.683 0.17228-0.89071 0.51683s-0.31156 0.78563-0.31156 1.3232h-2.0307l-0.021993-0.043986c-0.019549-0.95303 0.2688-1.7606 0.86505-2.4229 0.59625-0.66223 1.3929-0.99334 2.3899-0.99334 1.0117 0 1.7949 0.27979 2.3496 0.83939s0.83206 1.3208 0.83206 2.2836c0 0.65001-0.16006 1.2487-0.48018 1.7961s-0.85649 1.278-1.6091 2.192l-1.4515 2.104h3.8561v1.6128zm7.7928-3.8707c0 1.256-0.30057 2.2408-0.90171 2.9544-0.60114 0.71355-1.3929 1.0703-2.3752 1.0703-0.99701 0-1.7973-0.35677-2.4009-1.0703s-0.90537-1.6983-0.90537-2.9544v-2.925c0-1.2463 0.30057-2.2298 0.90171-2.9507 0.60114-0.72088 1.3978-1.0813 2.3899-1.0813 0.98724 0 1.7826 0.36043 2.3862 1.0813s0.90537 1.7044 0.90537 2.9507v2.925zm-2.0747-3.1083c0-0.70377-0.10874-1.2511-0.32623-1.6421-0.21749-0.39099-0.51439-0.58648-0.89071-0.58648-0.3861 0-0.68544 0.19549-0.89804 0.58648-0.2126 0.39099-0.3189 0.93836-0.3189 1.6421v3.2769c0 0.71844 0.10752 1.2719 0.32256 1.6605s0.51805 0.58281 0.90904 0.58281c0.37632 0 0.67078-0.19427 0.88338-0.58281s0.3189-0.94202 0.3189-1.6605v-3.2769z" fill="#fff" sketchType="MSShapeGroup"/>
</g>
</g>
</svg>
